<?xml version="1.0" encoding="utf-8"?>
<!-- Generator: Adobe Illustrator 17.0.0, SVG Export Plug-In . SVG Version: 6.00 Build 0)  -->
<!DOCTYPE svg PUBLIC "-//W3C//DTD SVG 1.1//EN" "http://www.w3.org/Graphics/SVG/1.1/DTD/svg11.dtd">
<svg version="1.1" id="Capa_1" xmlns="http://www.w3.org/2000/svg" xmlns:xlink="http://www.w3.org/1999/xlink" x="0px" y="0px"
	 width="100px" height="90px" viewBox="0 0 100 90" enable-background="new 0 0 100 90" xml:space="preserve">
<path fill="#00A8CA" d="M84.967,86.833H14.321c-3.532,0-6.422-2.89-6.422-6.422V51.51c0-3.532,2.89-6.422,6.422-6.422h32.112v-6.422
	V14.903l-6.101,6.101c-1.284,1.284-3.532,1.284-4.817,0s-1.284-3.532,0-4.817L47.396,4.306c0.963-0.963,2.248-1.284,3.532-0.642
	c0.963,0.642,12.524,12.203,12.524,12.203c1.284,1.284,1.284,3.211,0,4.496s-3.211,1.284-4.496,0l-5.78-5.78v30.827l0,0l0,0
	c0,3.532-1.284,6.422-6.422,6.422H14.642v28.901h70.646V51.831H62.81c-1.927,0-3.211-1.284-3.211-3.211s1.284-3.211,3.211-3.211
	h22.478c3.532,0,6.422,2.89,6.422,6.422v28.901C91.39,83.943,88.499,86.833,84.967,86.833z"/>
<g>
</g>
<g>
</g>
<g>
</g>
<g>
</g>
<g>
</g>
<g>
</g>
</svg>
