<?xml version="1.0" encoding="utf-8"?>
<!-- Generator: Adobe Illustrator 17.0.0, SVG Export Plug-In . SVG Version: 6.00 Build 0)  -->
<!DOCTYPE svg PUBLIC "-//W3C//DTD SVG 1.1//EN" "http://www.w3.org/Graphics/SVG/1.1/DTD/svg11.dtd">
<svg version="1.1" id="Capa_1" xmlns="http://www.w3.org/2000/svg" xmlns:xlink="http://www.w3.org/1999/xlink" x="0px" y="0px"
	 width="100px" height="90px" viewBox="0 0 100 90" enable-background="new 0 0 100 90" xml:space="preserve">
<path fill="#00A8CA" d="M84.74,64.788h-7.298c3.49-5.394,5.712-12.058,5.712-19.038c0-6.981-2.221-13.644-5.712-19.038h7.298
	c2.856,5.712,4.76,12.058,4.76,19.038C89.5,52.731,87.913,59.077,84.74,64.788z M45.077,74.308v-6.346h6.346v6.346H45.077z
	 M67.288,87H32.385c-1.904,0-3.173-1.269-3.173-3.173c0-1.904,1.269-3.173,3.173-3.173h34.904V10.846H29.212v60.288
	c0,1.904-1.269,3.173-3.173,3.173s-3.173-1.269-3.173-3.173V10.846c0-3.49,2.856-6.346,6.346-6.346h38.077
	c3.49,0,6.346,2.856,6.346,6.346v69.808C73.635,84.144,70.779,87,67.288,87z M11.76,64.788C8.904,59.077,7,52.731,7,45.75
	s1.587-13.327,4.76-19.038h7.298c-3.49,5.394-5.712,12.058-5.712,19.038c0,6.981,2.221,13.644,5.712,19.038H11.76z"/>
<g>
</g>
<g>
</g>
<g>
</g>
<g>
</g>
<g>
</g>
<g>
</g>
</svg>
