<?xml version="1.0" encoding="utf-8"?>
<!-- Generator: Adobe Illustrator 17.0.0, SVG Export Plug-In . SVG Version: 6.00 Build 0)  -->
<!DOCTYPE svg PUBLIC "-//W3C//DTD SVG 1.1//EN" "http://www.w3.org/Graphics/SVG/1.1/DTD/svg11.dtd">
<svg version="1.1" id="Capa_1" xmlns="http://www.w3.org/2000/svg" xmlns:xlink="http://www.w3.org/1999/xlink" x="0px" y="0px"
	 width="100px" height="90px" viewBox="0 0 100 90" enable-background="new 0 0 100 90" xml:space="preserve">
<path fill="#00A8CA" d="M49.695,88.391c-23.37,0-42.195-5.193-42.195-11.36c0-4.22,8.439-7.79,21.098-9.737l5.193,5.518
	c-11.685,0.649-17.852,2.597-17.852,4.22c0,2.597,13.957,4.869,33.756,4.869s34.081-2.272,34.081-4.869
	c0-1.947-6.167-3.57-17.852-4.22l5.193-5.518c12.659,1.947,21.098,5.518,21.098,9.737C91.891,83.198,73.065,88.391,49.695,88.391z
	 M62.679,33.212c0,7.141-5.842,12.983-12.983,12.983s-12.983-5.842-12.983-12.983s5.842-12.983,12.983-12.983
	C56.836,20.229,62.679,26.071,62.679,33.212z M43.204,33.212c0,3.57,2.921,6.492,6.492,6.492c3.57,0,6.492-2.921,6.492-6.492
	c0-3.57-2.921-6.492-6.492-6.492C46.125,26.721,43.204,29.642,43.204,33.212z M52.941,72.162l-3.246,3.246l-3.246-3.246
	c-0.974-1.298-21.422-18.826-25.317-34.081c-0.325-0.974-0.974-4.544,2.597-4.869c2.921-0.325,3.57,3.246,3.57,3.246
	c2.597,11.36,16.878,22.396,22.396,29.212c5.842-7.465,22.721-19.799,22.721-32.458c0-14.606-8.439-22.721-22.721-22.721
	c-10.711,0-18.176,4.544-21.098,12.983c0,0-1.298,3.895-3.57,3.246c-2.597-0.649-2.921-2.597-1.947-5.518
	C27.624,10.816,37.686,4,49.695,4c16.554,0,29.212,12.334,29.212,29.212C78.908,49.441,54.24,70.863,52.941,72.162z"/>
<g>
</g>
<g>
</g>
<g>
</g>
<g>
</g>
<g>
</g>
<g>
</g>
</svg>
