<?xml version="1.0" encoding="utf-8"?>
<!-- Generator: Adobe Illustrator 17.0.0, SVG Export Plug-In . SVG Version: 6.00 Build 0)  -->
<!DOCTYPE svg PUBLIC "-//W3C//DTD SVG 1.1//EN" "http://www.w3.org/Graphics/SVG/1.1/DTD/svg11.dtd">
<svg version="1.1" id="Capa_1" xmlns="http://www.w3.org/2000/svg" xmlns:xlink="http://www.w3.org/1999/xlink" x="0px" y="0px"
	 width="100px" height="90px" viewBox="0 0 100 90" enable-background="new 0 0 100 90" xml:space="preserve">
<path fill="#00A8CA" d="M84.841,87.167H14.188c-3.533,0-4.175-2.248-3.212-6.423l3.212-25.692c0.642-2.89,1.927-6.423,6.423-6.423
	H39.88v6.423H20.611l-3.212,25.692H81.63l-3.212-25.692H59.149v-6.423h19.269c4.496,0,5.781,3.533,6.423,6.423l3.212,25.692
	C89.016,84.919,88.374,87.167,84.841,87.167z M52.726,41.884v27.619c0,0.963-0.642,1.606-1.606,1.606h-3.212
	c-0.963,0-1.606-0.642-1.606-1.606V37.388c0-0.963,0.642-1.606,1.606-1.606h2.89c0.963,0,2.248-0.321,2.248-0.321
	c5.138-1.606,9.313-6.423,9.313-12.525c0-7.065-5.781-12.846-12.846-12.846s-12.846,5.781-12.846,12.846
	c0,2.569,0.963,5.138,2.248,7.065c0,0,0.963,1.606,0.963,2.569c0,1.927-1.285,3.212-3.212,3.212c-1.285,0-2.248-0.642-2.89-1.927
	c0,0-3.533-3.854-3.533-10.919c0-10.598,8.671-19.269,19.269-19.269c10.598,0,19.269,8.671,19.269,19.269
	C68.784,32.571,61.718,40.278,52.726,41.884z"/>
<g>
</g>
<g>
</g>
<g>
</g>
<g>
</g>
<g>
</g>
<g>
</g>
</svg>
