<?xml version="1.0" encoding="utf-8"?>
<!-- Generator: Adobe Illustrator 17.0.0, SVG Export Plug-In . SVG Version: 6.00 Build 0)  -->
<!DOCTYPE svg PUBLIC "-//W3C//DTD SVG 1.1//EN" "http://www.w3.org/Graphics/SVG/1.1/DTD/svg11.dtd">
<svg version="1.1" id="Capa_1" xmlns="http://www.w3.org/2000/svg" xmlns:xlink="http://www.w3.org/1999/xlink" x="0px" y="0px"
	 width="100px" height="90px" viewBox="0 0 100 90" enable-background="new 0 0 100 90" xml:space="preserve">
<path fill="#00A8CA" d="M44.756,48.41v6.654h-6.654V48.41H44.756z M58.064,48.41v6.654H51.41V48.41H58.064z M71.372,48.41v6.654
	h-6.654V48.41H71.372z M24.795,48.41h6.654v6.654h-6.654V48.41z M71.372,71.699H24.795v-6.654h46.577V71.699z M84.679,88.333H11.487
	c-3.66,0-6.654-2.994-6.654-6.654v-43.25c0-3.66,2.994-6.654,6.654-6.654h13.308v-9.981c0-3.66,2.994-6.654,6.654-6.654h39.923
	V1.833h6.654v13.308c0,3.66-2.994,6.654-6.654,6.654H31.449v16.635H11.487v43.25h73.192v-43.25h-43.25l0,0l0,0
	c-1.996,0-3.327-1.331-3.327-3.327c0-1.996,1.331-3.327,3.327-3.327l0,0l0,0h43.25c3.66,0,6.654,2.994,6.654,6.654v43.25
	C91.333,85.339,88.339,88.333,84.679,88.333z"/>
<g>
</g>
<g>
</g>
<g>
</g>
<g>
</g>
<g>
</g>
<g>
</g>
</svg>
