<?xml version="1.0" encoding="utf-8"?>
<!-- Generator: Adobe Illustrator 17.0.0, SVG Export Plug-In . SVG Version: 6.00 Build 0)  -->
<!DOCTYPE svg PUBLIC "-//W3C//DTD SVG 1.1//EN" "http://www.w3.org/Graphics/SVG/1.1/DTD/svg11.dtd">
<svg version="1.1" id="Capa_1" xmlns="http://www.w3.org/2000/svg" xmlns:xlink="http://www.w3.org/1999/xlink" x="0px" y="0px"
	 width="100px" height="90px" viewBox="0 0 100 90" enable-background="new 0 0 100 90" xml:space="preserve">
<path fill="#00A8CA" d="M86.038,88.333H69.468v-6.628h16.571V65.135h6.628v16.571C92.667,85.351,89.684,88.333,86.038,88.333z
	 M72.782,75.077H33.013c-1.988,0-3.314-1.326-3.314-3.314s1.326-3.314,3.314-3.314h39.769V22.051H26.385v36.455
	c0,1.988-1.326,3.314-3.314,3.314s-3.314-1.326-3.314-3.314V22.051c0-3.646,2.983-6.628,6.628-6.628h46.397
	c3.646,0,6.628,2.983,6.628,6.628v46.397C79.41,72.094,76.428,75.077,72.782,75.077z M13.128,8.795v16.571H6.5V8.795
	c0-3.646,2.983-6.628,6.628-6.628h16.571v6.628H13.128z"/>
<g>
</g>
<g>
</g>
<g>
</g>
<g>
</g>
<g>
</g>
<g>
</g>
</svg>
