<?xml version="1.0" encoding="utf-8"?>
<!-- Generator: Adobe Illustrator 17.0.0, SVG Export Plug-In . SVG Version: 6.00 Build 0)  -->
<!DOCTYPE svg PUBLIC "-//W3C//DTD SVG 1.1//EN" "http://www.w3.org/Graphics/SVG/1.1/DTD/svg11.dtd">
<svg version="1.1" id="Capa_1" xmlns="http://www.w3.org/2000/svg" xmlns:xlink="http://www.w3.org/1999/xlink" x="0px" y="0px"
	 width="265px" height="40px" viewBox="0 0 265 40" enable-background="new 0 0 265 40" xml:space="preserve">
<rect x="3.646" y="8.897" transform="matrix(0.7071 -0.7071 0.7071 0.7071 -7.8692 11.5715)" fill="#569FD0" width="12.775" height="12.775"/>
<rect x="12.679" y="17.931" transform="matrix(0.7071 -0.7071 0.7071 0.7071 -11.611 20.605)" fill="#68ADDE" width="12.775" height="12.775"/>
<rect x="21.713" y="8.897" transform="matrix(0.7071 -0.7071 0.7071 0.7071 -2.5775 24.3468)" fill="#2DA4DF" width="12.775" height="12.775"/>
<rect x="30.746" y="17.931" transform="matrix(0.7071 -0.7071 0.7071 0.7071 -6.3193 33.3803)" fill="#50A6C8" width="12.775" height="12.775"/>
<rect x="39.763" y="8.897" transform="matrix(0.7071 -0.7071 0.7071 0.7071 2.7093 37.1102)" fill="#2281B3" width="12.775" height="12.775"/>
<g>
	<path fill="#2DA4DF" d="M67.388,34.013V6.992h6.307v21.147l6.06-11.315h4.081l6.06,11.315V6.992h6.307v27.021h-9.832l-4.576-7.049
		l-4.576,7.049H67.388z"/>
	<path fill="#2DA4DF" d="M119.945,7.827c0.619,0.557,0.928,1.227,0.928,2.01v21.332c0,0.825-0.309,1.506-0.928,2.041
		c-0.618,0.536-1.36,0.804-2.226,0.804h-16.015v-5.75h4.081h8.718v-4.885h-8.718h-4.081v-5.751h4.081h8.718v-4.885h-8.718h-4.081
		v-5.75h16.015C118.584,6.992,119.327,7.27,119.945,7.827z"/>
	<path fill="#2DA4DF" d="M144.121,6.992c0.865,0,1.607,0.278,2.226,0.835c0.619,0.557,0.928,1.247,0.928,2.071v21.27
		c0,0.825-0.309,1.506-0.928,2.041c-0.618,0.536-1.36,0.804-2.226,0.804H125.88V6.992H144.121z M140.906,12.804h-8.719v15.52h8.719
		V12.804z"/>
</g>
<g>
	<path fill="#F2F0ED" d="M158.438,12.889v4.947h7.729v5.688h-7.729v4.885h14.036v5.688h-20.281V7.077h20.281v5.813H158.438z"/>
	<path fill="#F2F0ED" d="M193.249,34.098h-15.891v-5.75h12.676v-5.07h-9.46c-0.866,0-1.618-0.278-2.257-0.835
		c-0.64-0.557-0.959-1.246-0.959-2.071V9.797c0-0.782,0.319-1.453,0.959-2.009c0.639-0.557,1.391-0.835,2.257-0.835h15.829v5.75
		h-12.614v4.761h9.46c0.866,0,1.608,0.278,2.227,0.834c0.618,0.557,0.928,1.248,0.928,2.072v10.82c0,0.825-0.31,1.515-0.928,2.071
		S194.115,34.098,193.249,34.098z"/>
	<path fill="#F2F0ED" d="M208.831,34.098h-6.369V7.077h6.369V34.098z"/>
	<path fill="#F2F0ED" d="M229.421,16.228v-3.462h-9.09v15.582h9.09v-3.401h-3.896v-5.75h10.202v5.75v6.245
		c0,0.825-0.309,1.515-0.928,2.071c-0.618,0.557-1.36,0.835-2.226,0.835h-15.396c-0.865,0-1.607-0.278-2.226-0.835
		s-0.928-1.246-0.928-2.071V9.921c0-0.824,0.31-1.515,0.928-2.072c0.618-0.556,1.36-0.834,2.226-0.834h15.396
		c0.865,0,1.607,0.278,2.226,0.834c0.619,0.557,0.928,1.248,0.928,2.072v6.307H229.421z"/>
	<path fill="#F2F0ED" d="M263.737,34.098h-5.565l-12.119-18.302v18.302h-6.307V7.077h9.089l8.533,12.985V7.077h6.369V34.098z"/>
</g>
<g>
</g>
<g>
</g>
<g>
</g>
<g>
</g>
<g>
</g>
<g>
</g>
</svg>
