<?xml version="1.0" encoding="utf-8"?>
<!-- Generator: Adobe Illustrator 17.0.0, SVG Export Plug-In . SVG Version: 6.00 Build 0)  -->
<!DOCTYPE svg PUBLIC "-//W3C//DTD SVG 1.1//EN" "http://www.w3.org/Graphics/SVG/1.1/DTD/svg11.dtd">
<svg version="1.1" id="Capa_1" xmlns="http://www.w3.org/2000/svg" xmlns:xlink="http://www.w3.org/1999/xlink" x="0px" y="0px"
	 width="42px" height="42px" viewBox="0 0 42 42" enable-background="new 0 0 42 42" xml:space="preserve">
<path fill="#343F4B" d="M37.66,30.52v2.38c0,0.322-0.118,0.601-0.353,0.837s-0.514,0.354-0.837,0.353H5.53
	c-0.322,0-0.601-0.118-0.837-0.353S4.34,33.222,4.34,32.9v-2.38c0-0.322,0.118-0.601,0.353-0.837s0.514-0.354,0.837-0.353h30.94
	c0.322,0,0.601,0.118,0.837,0.353C37.543,29.918,37.66,30.197,37.66,30.52z M37.66,23.38v2.38c0,0.322-0.118,0.601-0.353,0.837
	s-0.514,0.354-0.837,0.353H5.53c-0.322,0-0.601-0.118-0.837-0.353C4.457,26.362,4.34,26.083,4.34,25.76v-2.38
	c0-0.322,0.118-0.601,0.353-0.837s0.514-0.354,0.837-0.353h30.94c0.322,0,0.601,0.118,0.837,0.353
	C37.543,22.778,37.66,23.057,37.66,23.38z M37.66,16.24v2.38c0,0.322-0.118,0.601-0.353,0.837s-0.514,0.354-0.837,0.353H5.53
	c-0.322,0-0.601-0.118-0.837-0.353C4.457,19.222,4.34,18.943,4.34,18.62v-2.38c0-0.322,0.118-0.601,0.353-0.837
	c0.235-0.236,0.514-0.354,0.837-0.353h30.94c0.322,0,0.601,0.118,0.837,0.353S37.66,15.917,37.66,16.24z M37.66,9.1v2.38
	c0,0.322-0.118,0.601-0.353,0.837s-0.514,0.354-0.837,0.353H5.53c-0.322,0-0.601-0.118-0.837-0.353S4.34,11.803,4.34,11.48V9.1
	c0-0.322,0.118-0.601,0.353-0.837C4.929,8.027,5.208,7.91,5.53,7.91h30.94c0.322,0,0.601,0.118,0.837,0.353
	C37.543,8.499,37.66,8.778,37.66,9.1z"/>
</svg>
